<?xml version="1.0" encoding="UTF-8"?> <svg xmlns="http://www.w3.org/2000/svg" width="120" height="60" viewBox="0 0 120 60"> <defs> <linearGradient id="a" x1="0%" y1="62.5%" y2="37.5%"> <stop offset="0%" stop-color="#19C7F7"></stop> <stop offset="100%" stop-color="#D860FF"></stop> </linearGradient> </defs> <path fill="url(#a)" fill-rule="nonzero" d="M91.31 44.251c-3.65 0-6.436-1.17-8.358-3.511-1.923-2.34-2.884-5.67-2.884-9.989 0-2.145.293-4.054.877-5.726.586-1.672 1.401-3.085 2.446-4.242a10.31 10.31 0 0 1 3.72-2.634c1.435-.598 3.001-.898 4.702-.898.919 0 1.747.077 2.486.23a15.62 15.62 0 0 1 1.944.523 7.9 7.9 0 0 1 1.4.627c.376.223.662.39.857.501l-1.338 4.096c-.64-.418-1.414-.774-2.32-1.066-.906-.292-1.943-.439-3.113-.439a6.57 6.57 0 0 0-2.362.44c-.766.291-1.449.78-2.047 1.462-.6.683-1.087 1.596-1.463 2.738-.376 1.142-.564 2.564-.564 4.262 0 2.955.508 5.22 1.525 6.792 1.017 1.575 2.681 2.362 4.995 2.362 1.337 0 2.445-.153 3.322-.46.878-.306 1.581-.613 2.111-.92l1.295 4.055c-.724.446-1.706.857-2.946 1.232-1.24.377-2.668.565-4.284.565zM72.45 30.254c0 1.304-.397 2.297-1.193 2.979-.795.68-1.709 1.021-2.74 1.021-.53 0-1.031-.088-1.502-.267a3.822 3.822 0 0 1-1.26-.777 3.801 3.801 0 0 1-.884-1.245c-.221-.489-.331-1.059-.331-1.711 0-.622.11-1.178.331-1.666a3.57 3.57 0 0 1 .884-1.223 4.018 4.018 0 0 1 1.26-.756c.47-.177.972-.266 1.502-.266 1.031 0 1.945.34 2.74 1.022.796.682 1.194 1.645 1.194 2.889zM58.859 17.837v4.262h-6.813v21.608h-5.182V22.1h-6.814v-4.262h18.809zm-21.766 17.22c0 1.253-.16 2.438-.48 3.552a7.491 7.491 0 0 1-1.589 2.925c-.738.836-1.692 1.498-2.863 1.986-1.17.487-2.591.731-4.263.731-1.755 0-3.218-.223-4.388-.668-1.17-.446-2.16-.99-2.968-1.63l1.964-4.097c.696.447 1.47.878 2.32 1.296a5.85 5.85 0 0 0 2.613.627c1.337 0 2.416-.355 3.238-1.066.822-.71 1.233-2.027 1.233-3.95V22.1H25.7v-4.262h11.393v17.22zM0 60V0h120v60H0zm3-3h114V3H3v54z"></path> </svg> 